<svg viewBox="0 0 400 400" fill="none" xmlns="http://www.w3.org/2000/svg" class="w-full h-full"><g filter="url(#shadow1)"><rect x="120" y="50" width="160" height="300" rx="20" fill="url(#phoneGradient)"/><rect x="130" y="70" width="140" height="260" rx="10" fill="#1e293b"/><path d="M145 150 L160 140 L180 145 L200 130 L220 135 L240 120 L255 125" stroke="url(#trendGradient1)" stroke-width="3" stroke-linecap="round"/><path d="M145 180 L160 175 L180 170 L200 160 L220 155 L240 145 L255 150" stroke="url(#trendGradient2)" stroke-width="3" stroke-linecap="round"/><path d="M145 210 L160 205 L180 198 L200 195 L220 188 L240 180 L255 185" stroke="url(#trendGradient3)" stroke-width="3" stroke-linecap="round"/><circle cx="250" cy="90" r="8" fill="#ef4444"/><circle cx="250" cy="90" r="8" fill="#ef4444" opacity="0.5"><animate attributeName="r" values="8;12;8" dur="2s" repeatCount="indefinite"/></circle></g><g opacity="0.9"><circle cx="80" cy="100" r="25" fill="url(#iconGradient1)"><animateTransform attributeName="transform" type="translate" values="0,0; 0,-10; 0,0" dur="3s" repeatCount="indefinite"/></circle><path d="M70 95 L75 100 L90 85" stroke="white" stroke-width="3" stroke-linecap="round" stroke-linejoin="round"/></g><g opacity="0.9"><circle cx="320" cy="150" r="30" fill="url(#iconGradient2)"><animateTransform attributeName="transform" type="translate" values="0,0; 0,10; 0,0" dur="4s" repeatCount="indefinite"/></circle><path d="M310 140 L320 155 L330 140" stroke="white" stroke-width="3" stroke-linecap="round" stroke-linejoin="round"/><line x1="320" y1="155" x2="320" y2="165" stroke="white" stroke-width="3" stroke-linecap="round"/></g><g opacity="0.9"><rect x="60" y="270" width="50" height="50" rx="12" fill="url(#iconGradient3)"><animateTransform attributeName="transform" type="translate" values="0,0; -5,5; 0,0" dur="3.5s" repeatCount="indefinite"/></rect><path d="M75 285 L85 295 L95 285 M85 295 L85 305" stroke="white" stroke-width="3" stroke-linecap="round" stroke-linejoin="round"/></g><g opacity="0.9"><rect x="290" y="280" width="50" height="50" rx="12" fill="url(#iconGradient4)"><animateTransform attributeName="transform" type="translate" values="0,0; 5,-5; 0,0" dur="4.5s" repeatCount="indefinite"/></rect><circle cx="310" cy="300" r="3" fill="white"/><circle cx="320" cy="300" r="3" fill="white"/><path d="M305 310 Q315 315 325 310" stroke="white" stroke-width="2" fill="none" stroke-linecap="round"/></g><defs><linearGradient id="phoneGradient" x1="120" y1="50" x2="280" y2="350" gradientUnits="userSpaceOnUse"><stop stop-color="#8b5cf6"/><stop offset="1" stop-color="#ec4899"/></linearGradient><linearGradient id="trendGradient1" x1="145" y1="150" x2="255" y2="125" gradientUnits="userSpaceOnUse"><stop stop-color="#a855f7"/><stop offset="1" stop-color="#ec4899"/></linearGradient><linearGradient id="trendGradient2" x1="145" y1="180" x2="255" y2="150" gradientUnits="userSpaceOnUse"><stop stop-color="#06b6d4"/><stop offset="1" stop-color="#8b5cf6"/></linearGradient><linearGradient id="trendGradient3" x1="145" y1="210" x2="255" y2="185" gradientUnits="userSpaceOnUse"><stop stop-color="#84cc16"/><stop offset="1" stop-color="#06b6d4"/></linearGradient><linearGradient id="iconGradient1" x1="55" y1="75" x2="105" y2="125" gradientUnits="userSpaceOnUse"><stop stop-color="#10b981"/><stop offset="1" stop-color="#06b6d4"/></linearGradient><linearGradient id="iconGradient2" x1="290" y1="120" x2="350" y2="180" gradientUnits="userSpaceOnUse"><stop stop-color="#f97316"/><stop offset="1" stop-color="#eab308"/></linearGradient><linearGradient id="iconGradient3" x1="60" y1="270" x2="110" y2="320" gradientUnits="userSpaceOnUse"><stop stop-color="#ec4899"/><stop offset="1" stop-color="#f43f5e"/></linearGradient><linearGradient id="iconGradient4" x1="290" y1="280" x2="340" y2="330" gradientUnits="userSpaceOnUse"><stop stop-color="#8b5cf6"/><stop offset="1" stop-color="#6366f1"/></linearGradient><filter id="shadow1" x="-50%" y="-50%" width="200%" height="200%"><feGaussianBlur in="SourceAlpha" stdDeviation="8"/><feOffset dx="0" dy="10" result="offsetblur"/><feComponentTransfer><feFuncA type="linear" slope="0.3"/></feComponentTransfer><feMerge><feMergeNode/><feMergeNode in="SourceGraphic"/></feMerge></filter></defs></svg>